<svg xmlns="http://www.w3.org/2000/svg" width="328.065" height="51.995" viewBox="0 0 328.065 51.995"><rect width="328.065" height="51.995" rx="3" transform="translate(0 0)" fill="#4285f4"/><text transform="translate(152.659 29.856)" fill="#fff" font-size="14" font-family="OpenSans, Open Sans"><tspan x="-62.333" y="0">Sign in with Google</tspan></text><rect width="47.043" height="47.043" rx="4" transform="translate(2.476 2.476)" fill="#fff"/><g transform="translate(9.904 10.2)"><path d="M32.188,1.609A1.609,1.609,0,0,0,30.578,0H1.609A1.609,1.609,0,0,0,0,1.609V30.578a1.609,1.609,0,0,0,1.609,1.609H30.578a1.609,1.609,0,0,0,1.609-1.609Z" fill="none" fill-rule="evenodd"/><path d="M32.188,1.609A1.609,1.609,0,0,0,30.578,0H1.609A1.609,1.609,0,0,0,0,1.609V30.578a1.609,1.609,0,0,0,1.609,1.609H30.578a1.609,1.609,0,0,0,1.609-1.609Z" fill="none" fill-rule="evenodd"/><path d="M32.188,1.609A1.609,1.609,0,0,0,30.578,0H1.609A1.609,1.609,0,0,0,0,1.609V30.578a1.609,1.609,0,0,0,1.609,1.609H30.578a1.609,1.609,0,0,0,1.609-1.609Z" fill="none" fill-rule="evenodd"/><g transform="translate(0.805 0.805)"><path d="M31.578,1.8a.8.8,0,0,0-.8-.8H1.8a.8.8,0,0,0-.8.8V30.773a.8.8,0,0,0,.8.8H30.773a.8.8,0,0,0,.8-.8Z" transform="translate(-1 -1)" fill="none" fill-rule="evenodd"/><path d="M31.578,1.8a.8.8,0,0,0-.8-.8H1.8a.8.8,0,0,0-.8.8V30.773a.8.8,0,0,0,.8.8H30.773a.8.8,0,0,0,.8-.8Z" transform="translate(-1 -1)" fill="none" fill-rule="evenodd"/><path d="M31.578,1.8a.8.8,0,0,0-.8-.8H1.8a.8.8,0,0,0-.8.8V30.773a.8.8,0,0,0,.8.8H30.773a.8.8,0,0,0,.8-.8Z" transform="translate(-1 -1)" fill="none" fill-rule="evenodd"/></g><path d="M35.4,19.658a18.322,18.322,0,0,0-.292-3.282H20v6.2h8.635a7.378,7.378,0,0,1-3.2,4.842V31.45h5.185A15.653,15.653,0,0,0,35.4,19.658Z" transform="translate(-3.906 -3.198)" fill="#4285f4"/><path d="M16.52,36.784A15.317,15.317,0,0,0,27.138,32.9L21.953,28.87A9.68,9.68,0,0,1,7.542,23.788H2.182v4.157A16.038,16.038,0,0,0,16.52,36.784Z" transform="translate(-0.426 -4.646)" fill="#34a853"/><path d="M7.128,21.3a9.51,9.51,0,0,1,0-6.1V11.046H1.768a16.069,16.069,0,0,0,0,14.41L7.128,21.3Z" transform="translate(-0.012 -2.157)" fill="#fbbc05"/><path d="M16.52,6.444a8.667,8.667,0,0,1,6.132,2.4l4.6-4.6A15.417,15.417,0,0,0,16.52.062,16.039,16.039,0,0,0,2.182,8.9l5.36,4.157A9.564,9.564,0,0,1,16.52,6.443Z" transform="translate(-0.426 -0.012)" fill="#ea4335"/><path d="M.062.062H32.15V32.15H.062Z" transform="translate(-0.012 -0.012)" fill="none" fill-rule="evenodd"/></g></svg>