<svg xmlns="http://www.w3.org/2000/svg" width="32" height="32" viewBox="0 0 32 32"><g transform="translate(-24.415 54)"><rect width="32" height="32" transform="translate(24.415 -54)" fill="none"/><path d="M10.3,6.1H19.75M10.3,6.1A1.532,1.532,0,0,1,8.841,7.7,1.532,1.532,0,0,1,7.386,6.1m2.909,0A1.532,1.532,0,0,0,8.841,4.5,1.532,1.532,0,0,0,7.386,6.1M3.75,6.1H7.386M10.3,18.9H19.75m-9.455,0a1.532,1.532,0,0,1-1.455,1.6,1.532,1.532,0,0,1-1.455-1.6m2.909,0a1.532,1.532,0,0,0-1.455-1.6,1.532,1.532,0,0,0-1.455,1.6m-3.636,0H7.386m8.727-6.4H19.75m-3.636,0a1.532,1.532,0,0,1-1.455,1.6A1.532,1.532,0,0,1,13.2,12.5m2.909,0a1.532,1.532,0,0,0-1.455-1.6A1.532,1.532,0,0,0,13.2,12.5m-9.455,0H13.2" transform="translate(29.165 -50)" fill="none" stroke="#000" stroke-linecap="round" stroke-linejoin="round" stroke-width="1.5"/></g></svg>