<svg xmlns="http://www.w3.org/2000/svg" xmlns:xlink="http://www.w3.org/1999/xlink" width="72" height="72" viewBox="0 0 72 72"><defs><linearGradient id="a" x1="0.037" y1="0.963" x2="0.963" y2="0.037" gradientUnits="objectBoundingBox"><stop offset="0" stop-color="#ef4374"/><stop offset="1" stop-color="#e75f74"/></linearGradient><filter id="b" x="46.244" y="7.577" width="13.161" height="13.161" filterUnits="userSpaceOnUse"><feOffset dx="0.25" dy="0.42" input="SourceAlpha"/><feGaussianBlur stdDeviation="0.64" result="c"/><feFlood flood-color="#b6862d" flood-opacity="0.8"/><feComposite operator="in" in2="c"/><feComposite in="SourceGraphic"/></filter></defs><g transform="translate(-159 -183)"><rect width="72" height="72" rx="14.86" transform="translate(159 183)" fill="url(#a)"/><g transform="translate(172.412 204.278)"><path d="M123.005,83.92H108.96c.447,9.247,5,13.567,13.821,13.013h.3V83.92" transform="translate(-108.96 -54.394)" fill="#fff"/><path d="M148.644,96.933V83.92H134.45V96.933h14.194" transform="translate(-118.609 -54.394)" fill="#fff"/><path d="M160.41,96.933h.3c8.738.547,13.374-3.834,13.821-13.013H160.41V96.933" transform="translate(-128.436 -54.394)" fill="#fff"/><path d="M148.644,59.89H134.45V72.9h14.194V59.89" transform="translate(-118.609 -45.298)" fill="#fff"/><path d="M174.244,59.89H160.05V72.9h14.194V59.89" transform="translate(-128.3 -45.298)" fill="#fff"/><path d="M159.93,36.41V49.423h14.194V36.41H159.93" transform="translate(-128.254 -36.41)" fill="#fff"/><g transform="matrix(1, 0, 0, 1, -13.41, -21.28)" filter="url(#b)"><ellipse cx="4.661" cy="4.661" rx="4.661" ry="4.661" transform="translate(47.91 9.08)" fill="#fff200"/></g><ellipse cx="5.696" cy="5.696" rx="5.696" ry="5.696" transform="translate(33.467 -13.237)" fill="none" stroke="#fff200" stroke-miterlimit="10" stroke-width="0.68"/></g></g></svg>