<svg xmlns="http://www.w3.org/2000/svg" xmlns:xlink="http://www.w3.org/1999/xlink" width="50" height="50" viewBox="0 0 50 50"><defs><filter id="a" x="0" y="0" width="50" height="50" filterUnits="userSpaceOnUse"><feOffset dy="3" input="SourceAlpha"/><feGaussianBlur stdDeviation="3" result="b"/><feFlood flood-opacity="0.161"/><feComposite operator="in" in2="b"/><feComposite in="SourceGraphic"/></filter></defs><g transform="translate(15 10.001)"><g transform="matrix(1, 0, 0, 1, -15, -10)" filter="url(#a)"><circle cx="16" cy="16" r="16" transform="translate(9 6)" fill="#fff"/></g><g transform="translate(-2)"><circle cx="12" cy="12" r="12" transform="translate(0 -0.001)" fill="#007ab9"/><path d="M40.448,31.807v4.947H37.579V32.139c0-1.159-.414-1.95-1.453-1.95a1.569,1.569,0,0,0-1.471,1.049,1.963,1.963,0,0,0-.095.7v4.818H31.692s.039-7.818,0-8.627h2.869V29.35c-.006.01-.014.019-.019.028h.019V29.35a2.848,2.848,0,0,1,2.585-1.425C39.033,27.925,40.448,29.158,40.448,31.807ZM28.691,23.969a1.495,1.495,0,1,0-.038,2.981h.019a1.5,1.5,0,1,0,.019-2.981ZM27.238,36.754h2.867V28.127H27.238Z" transform="translate(-21.278 -18.843)" fill="#f1f2f2"/></g></g></svg>