<svg xmlns="http://www.w3.org/2000/svg" width="328.065" height="51.995" viewBox="0 0 328.065 51.995"><rect width="328.065" height="51.995" rx="3" transform="translate(0 0)" fill="#0077b5"/><text transform="translate(157.658 31.242)" fill="#fff" font-size="14" font-family="OpenSans, Open Sans"><tspan x="-67.088" y="0">Sign in with LinkedIn</tspan></text><path d="M3.226,7.219h.037A3.027,3.027,0,0,0,6.455,4.1,3.018,3.018,0,0,0,3.3.983,3.028,3.028,0,0,0,.108,4.1,3.008,3.008,0,0,0,3.226,7.219ZM.108,9.3H6.455V27.316H.108Zm28.208,6.584a6.642,6.642,0,0,0-6.7-6.584,6.723,6.723,0,0,0-5.289,2.553V9.3H9.98V27.317h6.347v-10.4a2.821,2.821,0,0,1,5.641,0v10.4h6.347V15.882Z" transform="translate(15.365 9.971)" fill="#fff"/></svg>