<svg xmlns="http://www.w3.org/2000/svg" width="24" height="24" viewBox="0 0 24 24"><circle cx="12" cy="12" r="12" fill="rgba(224,20,89,0.3)"/><path d="M12.342,5.143h.789a5.719,5.719,0,0,1,0,6.286h-.113a2.007,2.007,0,0,0-1.547.823A6.888,6.888,0,0,1,9.29,14.08a2.641,2.641,0,0,0-1.259,1.307,3.428,3.428,0,0,0-.245,1.274v.482a.571.571,0,0,1-.571.571A1.714,1.714,0,0,1,5.5,16a5.7,5.7,0,0,1,.551-2.452.677.677,0,0,0-.552-.977H3.117a1.522,1.522,0,0,1-1.565-1.307,9.247,9.247,0,0,1-.052-.979,9.1,9.1,0,0,1,2.018-5.73A1.554,1.554,0,0,1,4.741,4H7.8a3.429,3.429,0,0,1,1.084.175l2.373.792a3.429,3.429,0,0,0,1.084.175Zm4.525,6.494A9.195,9.195,0,0,0,17.1,5.614a1.536,1.536,0,0,0-1.5-1.042H14.91a.471.471,0,0,0-.4.684,6.869,6.869,0,0,1-.288,6.585.479.479,0,0,0,.381.731h.8a1.541,1.541,0,0,0,1.461-.935Z" transform="translate(2.5 1)" fill="#e01459"/></svg>