<svg xmlns="http://www.w3.org/2000/svg" width="32" height="32" viewBox="0 0 32 32"><g transform="translate(-24.415 54)"><rect width="32" height="32" transform="translate(24.415 -54)" fill="none"/><path d="M19.087,15.133,18,13.569a1.271,1.271,0,0,1-.229-.725V8.357a6.357,6.357,0,1,0-12.713,0v4.488a1.271,1.271,0,0,1-.229.725L3.742,15.133a1.271,1.271,0,0,0,.941,2.123H8.3a3.178,3.178,0,0,0,6.229,0h3.617a1.271,1.271,0,0,0,.941-2.123Zm-7.672,3.394a1.907,1.907,0,0,1-1.793-1.271h3.585a1.907,1.907,0,0,1-1.793,1.271ZM4.683,15.985a.515.515,0,0,0,.076-.089l1.112-1.6a2.543,2.543,0,0,0,.458-1.449V8.357a5.085,5.085,0,0,1,10.171,0v4.488a2.543,2.543,0,0,0,.458,1.449l1.112,1.6a.515.515,0,0,0,.076.089Z" transform="translate(29 -49)"/></g></svg>