<svg xmlns="http://www.w3.org/2000/svg" width="24" height="24" viewBox="0 0 24 24"><circle cx="12" cy="12" r="12" fill="#eef4f9"/><path d="M6.066,14.571a.784.784,0,0,1-.743-.482,5.722,5.722,0,0,1,.826-5.621,1.04,1.04,0,0,1,.457-.3,2.207,2.207,0,0,0,.923-.7A6.889,6.889,0,0,1,9.71,5.634a2.641,2.641,0,0,0,1.259-1.307,3.427,3.427,0,0,0,.245-1.274V2.571A.571.571,0,0,1,11.786,2,1.714,1.714,0,0,1,13.5,3.714a5.7,5.7,0,0,1-.551,2.452.677.677,0,0,0,.552.977h2.382A1.522,1.522,0,0,1,17.448,8.45a9.223,9.223,0,0,1,.052.979,9.1,9.1,0,0,1-2.018,5.73,1.554,1.554,0,0,1-1.223.555H11.2a3.451,3.451,0,0,1-1.084-.175l-2.373-.792a3.429,3.429,0,0,0-1.084-.175H6.066ZM2.133,8.649A9.195,9.195,0,0,0,1.9,14.672a1.537,1.537,0,0,0,1.5,1.042h.69a.471.471,0,0,0,.4-.684,6.869,6.869,0,0,1,.288-6.585A.479.479,0,0,0,4.4,7.714H3.6a1.541,1.541,0,0,0-1.461.935Z" transform="translate(2.5 3)" fill="#b8b8b8"/></svg>